<svg xmlns="http://www.w3.org/2000/svg" fill="none" viewBox="0 0 48 48" id="Content-Write--Streamline-Freehand" height="48" width="48">
  <desc>
    Scribble
  </desc>
  <path fill="#ffffff" d="M47.0626 32.9212c-0.3936 -1.4034 -0.96 -2.7522 -1.6866 -4.0156 -1.0972 -1.8374 -2.5678 -3.4244 -4.3166 -4.658 0.287 -0.6154 0.5416 -1.2454 0.7628 -1.8872 0.4738 -1.3242 0.6586 -2.7345 0.5422 -4.13604 -0.0684 -0.65288 -0.2848 -1.28154 -0.6326 -1.83822 -0.348 -0.55666 -0.8184 -1.02664 -1.3752 -1.37418 -0.6168 -0.39064 -1.3462 -0.56516 -2.073 -0.4961 -0.7268 0.06906 -1.4102 0.37776 -1.9424 0.87756 -1.1388 1.00216 -2.0906 2.19862 -2.811 3.53366 -0.656 1.30512 -1.2392 2.64572 -1.7466 4.01552 -1.1728 0.149 -2.309 0.5096 -3.353 1.064 -0.5582 0.296 -1.0776 0.6602 -1.546 1.0842 -0.4676 0.4506 -0.8788 0.9562 -1.2248 1.5058l-0.5622 1.2448c-0.3412 1.4858 0.1608 2.2688 1.024 2.59 0.782 0.2604 1.6274 0.2604 2.4094 0 0 0 -2.2888 4.6982 -2.309 4.899 -0.291 0.8972 -0.506 1.8174 -0.6424 2.7506 -0.0874 0.6664 -0.0874 1.3414 0 2.0078 0.0624 0.3818 0.1564 0.758 0.281 1.1244 0.1168 0.2834 0.3208 0.5226 0.5822 0.6826 0.3962 0.2242 0.863 0.2888 1.3052 0.1806 0.5738 -0.154 1.117 -0.4052 1.6062 -0.7428l1.1644 -1.1042 1.1042 -1.4054c0.2104 -0.0442 0.4134 -0.1186 0.6024 -0.221 0.4186 -0.2674 0.8088 -0.5768 1.1646 -0.9236 0.5228 -0.5238 0.9872 -1.1026 1.3852 -1.7266 0.334 -0.5546 0.6292 -1.1314 0.8834 -1.7266 0.1258 0.0674 0.2612 0.115 0.4016 0.1404 0.4386 0.1192 0.8908 0.18 1.3452 0.1808h0.8032c-0.0902 0.3092 -0.1574 0.6246 -0.2008 0.9436 -0.04 0.32 -0.04 0.6438 0 0.9638 0.063 0.3164 0.1572 0.6256 0.281 0.9236 0.3266 0.7116 0.823 1.3322 1.4456 1.807 0.0582 0.0612 0.1282 0.1102 0.2058 0.1436 0.0778 0.0334 0.1614 0.0506 0.246 0.0506 0.0844 0 0.1682 -0.0172 0.2458 -0.0506s0.1478 -0.0824 0.2058 -0.1436c0.119 -0.1204 0.1858 -0.2826 0.1858 -0.4518 0 -0.1692 -0.0668 -0.3316 -0.1858 -0.4518 -0.1462 -0.2668 -0.2608 -0.5498 -0.3412 -0.8432 0 -0.3012 0 -0.6024 -0.1204 -0.9236 -0.1206 -0.3212 0 -0.6024 -0.1406 -0.9236 -0.2812 -1.4456 -0.3012 -1.807 -0.3816 -2.0078 0.0238 -0.1434 -0.009 -0.2904 -0.0912 -0.4102 -0.0824 -0.1198 -0.208 -0.203 -0.3504 -0.2322 -0.1174 -0.0266 -0.2402 -0.0136 -0.3494 0.0374 -0.109 0.0508 -0.198 0.1366 -0.253 0.2436 -0.3008 0.02 -0.6026 0.02 -0.9034 0 -0.4176 -0.0588 -0.8236 -0.1808 -1.2046 -0.3614 -0.8194 -0.4672 -1.4828 -1.1656 -1.9074 -2.0076 -0.2812 -0.522 -0.4016 -1.1044 0.281 -1.4858l0.6826 -0.3212c0.5658 -0.1508 1.161 -0.1508 1.7268 0 0.6356 0.1764 1.2436 0.4398 1.807 0.783 0.0692 0.0482 0.1474 0.0818 0.23 0.0988s0.1678 0.0172 0.2504 0.0002c0.0826 -0.0168 0.161 -0.0504 0.2302 -0.0984 0.0692 -0.0482 0.128 -0.1098 0.1728 -0.1814 0.0938 -0.139 0.1296 -0.3092 0.0996 -0.4744 -0.03 -0.165 -0.1234 -0.3118 -0.2602 -0.409 -0.3774 -0.2926 -0.773 -0.561 -1.1846 -0.803 0.09 -0.018 0.1756 -0.0538 0.2516 -0.1056 0.0758 -0.0518 0.1404 -0.1182 0.19 -0.1956 0.4016 -0.7094 0.8032 -1.4522 1.2046 -2.2286 1.2296 1.3286 2.2578 2.8304 3.0518 4.4572 0.6022 1.2054 1.132 2.4458 1.5862 3.7144 0.7168 1.9716 1.3202 3.9826 1.807 6.0232 0.034 0.1692 0.1328 0.3186 0.2754 0.416 0.1424 0.0976 0.3174 0.1356 0.4876 0.106 0.0832 -0.0168 0.1624 -0.0498 0.2328 -0.0972 0.0704 -0.0476 0.1306 -0.1086 0.1772 -0.1796 0.0468 -0.0708 0.0788 -0.1504 0.0946 -0.2338 0.0158 -0.0834 0.0148 -0.1692 -0.0028 -0.2524 -0.136 -2.176 -0.4448 -4.3378 -0.9234 -6.4648Zm-20.0776 -4.0156c-0.0784 -0.028 -0.1478 -0.0764 -0.2008 -0.1406l0.6024 -1.064c0.4072 -0.586 0.8786 -1.1248 1.4054 -1.6062 0.3492 -0.3424 0.7178 -0.6642 1.1042 -0.9638 0.3688 -0.2648 0.7582 -0.4998 1.1646 -0.7026 -0.0386 0.104 -0.0856 0.2048 -0.1406 0.301l-1.787 4.0156c-0.683 0.1276 -1.3738 0.208 -2.068 0.241l-0.0802 -0.0804Zm0.6826 10.9824c0 -0.1606 -0.4016 -1.6664 -0.4416 -2.3088 -0.0402 -0.6426 0 -1.0642 0 -1.5862 0.5908 0.5974 1.2212 1.154 1.8872 1.6664 0.2888 0.2126 0.5906 0.4072 0.9034 0.5822 0 0 -2.0478 1.6464 -2.2686 1.7268l-0.0804 -0.0804Zm10.4804 -12.9098c-0.0546 0.0946 -0.0834 0.202 -0.0834 0.3112 0 0.1092 0.0288 0.2166 0.0834 0.3112 -0.2046 -0.114 -0.4198 -0.2082 -0.6424 -0.2812 -0.6472 -0.21 -1.3334 -0.2716 -2.0078 -0.1806l-1.2648 0.3814c-0.3396 0.1206 -0.6514 0.3082 -0.9172 0.5516 -0.2658 0.2432 -0.4798 0.5376 -0.6296 0.8652 -0.1498 0.3278 -0.2322 0.6822 -0.2424 1.0424 -0.0102 0.3602 0.052 0.7188 0.183 1.0544 0.2244 0.6686 0.5948 1.279 1.0842 1.787 0.2348 0.2362 0.49 0.4512 0.7628 0.6424 -0.2408 0.3414 -0.4416 0.7028 -0.7026 1.024 -0.4704 0.6044 -1.0248 1.1386 -1.6464 1.586 -0.1606 0.1206 -0.803 0.5422 -0.7026 0.5422 -0.5874 -0.1166 -1.1598 -0.2984 -1.7066 -0.5422 -0.6626 -0.3412 -1.285 -0.7228 -2.0078 -1.0842 0.4416 -0.8834 0.8432 -1.6664 1.2046 -2.349 1.2046 -2.2688 2.1282 -3.7746 3.7546 -6.9066 0.8834 -1.787 1.6664 -3.8148 2.6702 -5.662 0.5746 -1.15226 1.342 -2.19794 2.2688 -3.09184 0.204 -0.21258 0.475 -0.34854 0.7676 -0.3851 0.2924 -0.03656 0.5884 0.02852 0.8386 0.18432 0.3178 0.1659 0.5934 0.40234 0.8056 0.69118 0.2122 0.28886 0.3556 0.62246 0.4192 0.97526 0.1522 1.15678 0.0634 2.33258 -0.261 3.45338 -0.0202 0.4618 -1.6464 4.2564 -2.028 5.0796Z" stroke-width="2"></path>

  <path fill="#ffffff" d="M32.1248 41.6548c-2.4768 1.41 -5.0694 2.6056 -7.75 3.5738 -1.67 0.637 -3.4844 0.7968 -5.24014 0.4618 -0.7827 -0.2708 -1.47682 -0.7498 -2.00776 -1.3854 -0.89842 -1.0638 -1.67928 -2.2216 -2.32898 -3.4534 -1.0842 -1.847 -2.00776 -3.7142 -2.9514 -5.6216 -1.38536 -2.8912 -2.61008 -5.8224 -3.89504 -8.794 -0.68264 -1.5058 -1.24482 -3.0316 -1.7869 -4.5576 -0.88342 -2.30888 -1.62628 -4.67804 -2.42938 -7.04718 -0.16062 -0.46178 -1.0842 -2.00776 -1.5259 -2.91124 0.67706 -0.03876 1.34912 -0.13956 2.00776 -0.30116 3.41596 -0.88062 6.7696 -1.98732 10.03876 -3.3128 3.69176 -1.38504 7.27538 -3.04266 10.72138 -4.95914 0.3266 -0.20678 0.6238 -0.45664 0.8834 -0.74288 0.533 0.77778 1.003 1.59686 1.4054 2.44946 1.024 2.28884 2.1886 6.02326 3.333 8.99474 0.3412 0.82318 0.6826 1.58612 1.0038 2.2286 0.0364 0.07684 0.0878 0.14566 0.1512 0.20248 0.0632 0.05682 0.1372 0.1005 0.2176 0.12852 0.0802 0.028 0.1654 0.0398 0.2502 0.03468 0.085 -0.00512 0.168 -0.02706 0.2444 -0.06452 0.1514 -0.07764 0.2672 -0.21064 0.3234 -0.37138 0.056 -0.16076 0.048 -0.33692 -0.0222 -0.49194 -0.3488 -0.70468 -0.6572 -1.42864 -0.9236 -2.16838 -1.1044 -2.9514 -2.1684 -6.7862 -3.1724 -9.1152 -0.6416 -1.34386 -1.5112 -2.566552 -2.5698 -3.613958 -0.1466 -0.084584 -0.3128 -0.129114 -0.4818 -0.129114 -0.1692 0 -0.3354 0.04453 -0.482 0.129114 -0.522 0.341318 -0.1606 0.582248 -1.2448 1.224738 -4.13626 2.07932 -8.41718 3.85746 -12.80944 5.32054 -2.55114 0.93106 -5.16 1.69562 -7.81016 2.28884 -2.168366 0.32124 -1.746738 -0.24094 -2.610072 0.1807 -0.206794 0.10924 -0.378628 0.27454 -0.4958096 0.47694 -0.117182 0.20242 -0.17497226 0.43374 -0.166748412 0.66748C0.419982 12.54468 0.9846 14.07048 1.687282 15.53394c0.803098 2.46952 1.545978 4.75846 2.328998 7.08746 0.58224 1.566 1.18458 3.132 1.88728 4.698 1.36528 2.9514 2.65024 5.8828 4.01552 8.7538 0.98378 2.0078 2.00774 3.8148 3.2124 5.682 0.74368 1.3196 1.63262 2.552 2.65022 3.6742 0.75424 0.8262 1.72984 1.4186 2.81086 1.7066 2.02604 0.3698 4.11564 0.154 6.02324 -0.6224 2.711 -1.0834 5.3354 -2.372 7.8504 -3.855 0.1302 -0.072 0.2268 -0.1926 0.2682 -0.3358 0.0414 -0.143 0.0244 -0.2966 -0.0474 -0.427 -0.0604 -0.0902 -0.1458 -0.161 -0.2454 -0.2036 -0.0998 -0.0428 -0.2098 -0.0558 -0.3168 -0.0374Z" stroke-width="2"></path>
  <path fill="#ffffff" d="M15.34 15.57412c1.04874 -0.17416 2.10924 -0.26814 3.17226 -0.2811 1.20224 -0.02272 2.39934 -0.16394 3.57374 -0.42162 1.6538 -0.34584 3.1366 -1.254 4.1962 -2.56992 0.119 -0.12028 0.1856 -0.2826 0.1856 -0.45174 0 -0.16916 -0.0666 -0.33148 -0.1856 -0.45176 -0.058 -0.06136 -0.1282 -0.11022 -0.2058 -0.14362s-0.1614 -0.05062 -0.2458 -0.05062c-0.0846 0 -0.1682 0.01722 -0.246 0.05062 -0.0776 0.0334 -0.1476 0.08226 -0.2058 0.14362 -0.7196 0.71196 -1.6122 1.22404 -2.59 1.48574 -1.2088 0.2425 -2.4442 0.32352 -3.67422 0.24094 -1.38764 -0.0285 -2.7743 0.09268 -4.13596 0.3614 -1.05798 0.27676 -2.05306 0.75386 -2.93132 1.40542 -1.14204 0.89776 -2.11436 1.99248 -2.8711 3.23248 -0.0468 0.11544 -0.05534 0.24284 -0.02438 0.3635 0.03096 0.12066 0.0998 0.2282 0.19642 0.30684 0.0966 0.07864 0.21588 0.12422 0.34032 0.13004 0.12442 0.00584 0.24744 -0.0284 0.35098 -0.09766 0.72112 -0.83322 1.5598 -1.55692 2.48962 -2.1483 0.84524 -0.5686 1.8046 -0.94548 2.81084 -1.10426Z" stroke-width="2"></path>
  <path fill="#ffffff" d="M27.7078 20.0114c0.119 -0.12036 0.1856 -0.28268 0.1856 -0.45182 0 -0.16916 -0.0666 -0.33148 -0.1856 -0.45176 -0.0582 -0.06136 -0.1282 -0.11022 -0.2058 -0.14362 -0.0778 -0.0334 -0.1614 -0.05062 -0.246 -0.05062 -0.0846 0 -0.1682 0.01722 -0.2458 0.05062 -0.0778 0.0334 -0.1478 0.08226 -0.206 0.14362 -0.8134 0.5451 -1.7284 0.92058 -2.6902 1.10418 -1.506 0.3414 -3.092 0.3816 -4.69824 0.6024 -0.91166 0.1734 -1.80074 0.4496 -2.65024 0.8232 -0.57258 0.2588 -1.11746 0.575 -1.62628 0.9436 -1.26022 0.8402 -2.31662 1.9514 -3.09194 3.2526 -0.0782 0.1264 -0.10514 0.2778 -0.07528 0.4234 0.02986 0.1456 0.11426 0.2742 0.2359 0.3596 0.0625 0.0446 0.13346 0.0758 0.20848 0.0918 0.07504 0.016 0.15256 0.0166 0.2278 0.0014 0.07522 -0.015 0.14658 -0.0452 0.20968 -0.089 0.06308 -0.0436 0.11656 -0.0996 0.15714 -0.1648 0.67004 -0.8066 1.47924 -1.4866 2.38924 -2.0078 0.6906 -0.3838 1.41678 -0.6998 2.16836 -0.9436 0.7446 -0.2748 1.50998 -0.4898 2.28884 -0.6424 1.60614 -0.3816 3.23254 -0.5824 4.75834 -1.1044 1.1444 -0.3526 2.1992 -0.9484 3.092 -1.7466Z" stroke-width="2"></path>
  <path fill="#ffffff" d="M19.8775 29.7288c-0.40938 0.1222 -0.80606 0.2836 -1.18456 0.4818 -0.37092 0.1824 -0.72098 0.4046 -1.04404 0.6626 -0.74042 0.6312 -1.41328 1.3378 -2.00776 2.108 -0.1031 0.1084 -0.16062 0.2522 -0.16062 0.4016 0 0.1496 0.05752 0.2934 0.16062 0.4016 0.05236 0.0534 0.11482 0.0958 0.18378 0.1248 0.06896 0.029 0.14298 0.044 0.21778 0.044s0.14884 -0.015 0.21778 -0.044c0.06896 -0.029 0.13142 -0.0714 0.18378 -0.1248 0.86452 -0.5096 1.75592 -0.972 2.6703 -1.3854 0.42164 -0.2008 0.82318 -0.4416 1.24484 -0.6626 0.4216 -0.2208 0.8232 -0.4818 1.2648 -0.6826 0.4342 -0.1926 0.8844 -0.3472 1.3452 -0.4618 0.0846 -0.0074 0.1668 -0.0318 0.2418 -0.0712 0.0752 -0.0394 0.1416 -0.0934 0.1958 -0.1588s0.0948 -0.1408 0.1196 -0.2218c0.0248 -0.0812 0.0334 -0.1664 0.025 -0.2508 -0.0046 -0.0856 -0.027 -0.1692 -0.0656 -0.2456 -0.0386 -0.0766 -0.0926 -0.1442 -0.1586 -0.199 -0.066 -0.0546 -0.1426 -0.095 -0.2248 -0.1188 -0.0824 -0.0236 -0.1686 -0.03 -0.2536 -0.019 -1.0076 -0.034 -2.0132 0.1088 -2.9715 0.4218Z" stroke-width="2"></path>
</svg>
