<svg width="280" height="280" viewBox="0 0 280 280" fill="none" xmlns="http://www.w3.org/2000/svg">
<path d="M192.301 193.609L154.21 155.969L146.667 163.603L184.759 201.242L192.301 193.609Z" fill="#699CFF"/>
<path d="M206.852 203.722L177.217 174.439C177.052 174.276 176.786 174.277 176.623 174.442L165.406 185.794C165.243 185.959 165.245 186.225 165.41 186.388L195.045 215.671C195.21 215.834 195.476 215.833 195.639 215.668L206.856 204.316C207.019 204.151 207.017 203.885 206.852 203.722Z" fill="#0E84E5"/>
<path d="M120.449 174.899C146.655 174.899 167.899 153.655 167.899 127.45C167.899 101.244 146.655 80 120.449 80C94.2439 80 73 101.244 73 127.45C73 153.655 94.2439 174.899 120.449 174.899Z" fill="#0E84E5"/>
<path d="M120.449 167.157C142.379 167.157 160.157 149.379 160.157 127.45C160.157 105.52 142.379 87.7425 120.449 87.7425C98.5198 87.7425 80.7423 105.52 80.7423 127.45C80.7423 149.379 98.5198 167.157 120.449 167.157Z" fill="#D4E5FF"/>
<path d="M86.4109 209.856L93.687 233.222C93.9571 234.089 94.0538 235 93.9716 235.904C93.8894 236.808 93.63 237.686 93.208 238.49C92.7861 239.293 92.21 240.006 91.5126 240.587C90.8152 241.168 90.0102 241.605 89.1436 241.875L60.8132 250.697C60.5839 258.866 53.8998 259.888 51.2653 260.333C51.2392 260.337 51.2126 260.331 51.1899 260.318C51.1671 260.305 51.1495 260.284 51.1398 260.259C51.1301 260.235 51.1288 260.208 51.1363 260.183C51.1437 260.157 51.1594 260.135 51.1808 260.12C53.0121 258.839 53.3807 255.621 53.345 253.022L51.2415 253.677C50.3751 253.947 49.464 254.044 48.5601 253.962C47.6563 253.879 46.7776 253.62 45.9741 253.198C45.1706 252.776 44.4581 252.2 43.8773 251.503C43.2965 250.805 42.8588 250 42.5891 249.134L35.313 225.768C35.0429 224.902 34.9462 223.99 35.0284 223.087C35.1106 222.183 35.37 221.304 35.792 220.5C36.2139 219.697 36.79 218.984 37.4874 218.403C38.1848 217.823 38.9898 217.385 39.8564 217.115L77.7581 205.313C78.6246 205.043 79.5358 204.946 80.4396 205.028C81.3435 205.111 82.2223 205.37 83.0258 205.792C83.8294 206.214 84.5419 206.79 85.1227 207.487C85.7036 208.185 86.1413 208.99 86.4109 209.856V209.856Z" fill="#418DF9"/>
<path d="M59.6432 218.225L39.3468 224.537C39.2667 224.562 39.222 224.647 39.2469 224.727L40.3112 228.149C40.3361 228.23 40.4212 228.274 40.5013 228.249L60.7977 221.937C60.8778 221.912 60.9226 221.827 60.8977 221.747L59.8334 218.325C59.8085 218.245 59.7233 218.2 59.6432 218.225Z" fill="white"/>
<path d="M85.2564 220.394L42.2466 233.787C42.1666 233.812 42.1219 233.898 42.1468 233.978L43.2122 237.399C43.2372 237.479 43.3223 237.524 43.4024 237.499L86.4122 224.105C86.4922 224.08 86.537 223.995 86.512 223.915L85.4466 220.494C85.4216 220.414 85.3365 220.369 85.2564 220.394Z" fill="#D4E5FF"/>
<path d="M88.1418 229.72L45.122 243.099C45.0418 243.124 44.9971 243.209 45.022 243.289L46.0863 246.711C46.1112 246.791 46.1964 246.836 46.2765 246.811L89.2963 233.432C89.3764 233.407 89.4212 233.322 89.3962 233.242L88.332 229.82C88.307 229.74 88.2219 229.695 88.1418 229.72Z" fill="#D4E5FF"/>
<path d="M191.519 43.2037L184.247 75.677C183.977 76.8813 183.928 78.1316 184.102 79.3567C184.276 80.5817 184.67 81.7574 185.261 82.8166C185.853 83.8758 186.63 84.7977 187.549 85.5297C188.468 86.2617 189.511 86.7894 190.617 87.0827L226.785 96.6816C227.714 107.797 236.164 108.619 239.498 109C239.531 109.002 239.564 108.992 239.591 108.972C239.618 108.951 239.638 108.922 239.648 108.888C239.658 108.854 239.658 108.817 239.647 108.783C239.636 108.75 239.615 108.721 239.587 108.702C237.193 107.113 236.479 102.758 236.319 99.2121L239.004 99.9246C240.11 100.219 241.259 100.272 242.384 100.083C243.509 99.8934 244.589 99.4644 245.562 98.8204C246.535 98.1765 247.382 97.3301 248.054 96.3297C248.727 95.3293 249.211 94.1945 249.481 92.9901L256.753 60.5167C257.023 59.3125 257.072 58.0621 256.898 56.8371C256.724 55.6121 256.33 54.4364 255.739 53.3772C255.147 52.318 254.37 51.3961 253.451 50.6641C252.532 49.9321 251.489 49.4044 250.383 49.1111L201.996 36.2691C200.89 35.9752 199.741 35.9214 198.616 36.1109C197.491 36.3003 196.411 36.7293 195.438 37.3733C194.465 38.0173 193.618 38.8636 192.946 39.864C192.273 40.8644 191.789 41.9993 191.519 43.2037V43.2037Z" fill="#A2BDFF"/>
<path d="M251.513 59.2236L231.289 53.8561C231.156 53.8207 231.022 53.9096 230.989 54.0546L229.952 58.6876C229.919 58.8326 230.001 58.9788 230.134 59.0141L250.358 64.3817C250.492 64.417 250.626 64.3281 250.658 64.1831L251.696 59.5501C251.728 59.4051 251.647 59.2589 251.513 59.2236Z" fill="white"/>
<path d="M248.626 72.1189L193.83 57.5758C193.697 57.5405 193.562 57.6294 193.53 57.7744L192.492 62.4074C192.46 62.5524 192.542 62.6986 192.675 62.7339L247.471 77.277C247.604 77.3123 247.738 77.2234 247.771 77.0784L248.808 72.4454C248.841 72.3004 248.759 72.1542 248.626 72.1189Z" fill="#D4E5FF"/>
<path d="M245.738 85.0143L190.942 70.4713C190.809 70.4359 190.675 70.5248 190.642 70.6698L189.605 75.3029C189.572 75.4478 189.654 75.594 189.787 75.6294L244.583 90.1724C244.716 90.2078 244.85 90.1189 244.883 89.9739L245.92 85.3408C245.953 85.1959 245.871 85.0497 245.738 85.0143Z" fill="#D4E5FF"/>
</svg>

